<?xml version="1.0" encoding="utf-8"?>
<svg version="1.1" width="100%" height="100%" viewBox="0 0 14 14" id="svg2" xmlns="http://www.w3.org/2000/svg" xmlns:bx="https://boxy-svg.com">
  <defs id="defs7">
    <bx:export/>
  </defs>
  <rect width="14" height="14" x="0" y="0" id="canvas" style="fill:none;stroke:none;visibility:hidden"/>
  <path d="M 3,0 C 2,0 1,1 1,2 l 0,10.484375 1,0 C 2,13 2,14 3,14 4,14 4,13 4,12.484375 l 6,0.03125 C 10,13 10,14 11,14 c 1,0 1,-1 1,-1.484375 l 1,0 L 13,2 C 13,1 12,0 11,0 z m 1,1 6,0 0,1 -6,0 z M 3,2.96875 11,3 11,7 3,6.96875 z M 4,9 C 4.552285,9 5,9.447715 5,10 5,10.552284 4.552285,11 4,11 3.447715,11 3,10.552284 3,10 3,9.447715 3.447715,9 4,9 z m 6,0 c 0.552285,0 1,0.447715 1,1 0,0.552284 -0.447715,1 -1,1 C 9.447715,11 9,10.552284 9,10 9,9.447715 9.447715,9 10,9 z" id="bus-stop" style="fill:#3094db;fill-opacity:1;stroke:none"/>
  <rect x="3.006" y="2.973" width="8.005" height="4.019" style="fill: rgb(216, 216, 216); fill-opacity: 0.4; stroke-opacity: 0; paint-order: stroke;" id="object-0"/>
</svg>